<svg xmlns="http://www.w3.org/2000/svg" version="1.1" xmlns:xlink="http://www.w3.org/1999/xlink" xmlns:svgjs="http://svgjs.dev/svgjs" viewBox="0 0 2400 800" opacity="1"><defs><linearGradient x1="50%" y1="0%" x2="50%" y2="100%" id="sssurf-grad"><stop stop-color="#909093" stop-opacity="1" offset="0%"></stop><stop stop-color="#e6e6fa" stop-opacity="1" offset="100%"></stop></linearGradient></defs><g fill="url(#sssurf-grad)" transform="matrix(1,0,0,1,9.6998291015625,316.55970764160156)"><path d="M-10,10C30.544871794871796,13.125,105.60897435897436,29.583333333333332,184.6153846153846,25C263.62179487179486,20.416666666666668,292.3076923076923,-11.791666666666666,369.2307692307692,-12C446.15384615384613,-12.208333333333334,476.9230769230769,25.458333333333332,553.8461538461538,24C630.7692307692307,22.541666666666668,661.5384615384615,-21.708333333333332,738.4615384615385,-19C815.3846153846154,-16.291666666666668,846.1538461538462,33.666666666666664,923.0769230769231,37C1000,40.333333333333336,1030.7692307692307,-2.375,1107.6923076923076,-3C1184.6153846153845,-3.625,1215.3846153846155,34.625,1292.3076923076924,34C1369.2307692307693,33.375,1400,-6.208333333333333,1476.923076923077,-6C1553.8461538461538,-5.791666666666667,1584.6153846153845,34.583333333333336,1661.5384615384614,35C1738.4615384615383,35.416666666666664,1769.2307692307693,-6.916666666666667,1846.1538461538462,-4C1923.076923076923,-1.083333333333333,1953.8461538461538,47.541666666666664,2030.7692307692307,49C2107.6923076923076,50.458333333333336,2138.461538461538,3.833333333333333,2215.3846153846152,3C2292.3076923076924,2.166666666666667,2309.455128205128,-37.70833333333334,2400,45C2490.544871794872,127.70833333333334,3254.1666666666665,221.875,2650,400C2045.8333333333335,578.125,156.25,795.8333333333334,-500,900" transform="matrix(1,0,0,1,0,43)" opacity="NaN"></path></g></svg>