<svg xmlns="http://www.w3.org/2000/svg" version="1.1" xmlns:xlink="http://www.w3.org/1999/xlink" viewBox="0 0 700 700" style="overflow: hidden; display: block;" width="700" height="700"><defs></defs><g id="two-0" transform="matrix(1 0 0 1 0 0)" opacity="1"><path transform="matrix(1 0 0 1 350 350)" id="two-20" d="M 142.469707 41.83288 C 163.640745 76.304176 210.764406 99.319315 216.788781 139.32169 C 220.864268 166.383273 212.978579 205.610679 188.16599 217.155128 C 154.234799 232.942151 114.961209 161.707208 81.536601 178.540253 C 42.700871 198.098407 86.932907 299.115117 43.822631 304.793099 C -0.500358 310.630805 16.443415 198.963342 -27.239539 189.455152 C -60.374716 182.242828 -78.721636 247.085191 -112.629528 246.624263 C -137.952858 246.280029 -151.85647 211.992607 -175.216967 202.211159 C -208.983818 188.072388 -267.883308 215.447367 -284.436426 182.796191 C -303.720805 144.757576 -220.712591 108.900538 -227.473026 66.792106 C -232.362877 36.3349 -300.437445 29.904421 -292.86925 0 C -280.786211 -47.744046 -164.064434 3.154651 -150.303703 -44.13315 C -136.324232 -92.172636 -247.782826 -109.65117 -248.46489 -159.678689 C -248.845364 -187.585455 -221.15272 -214.642268 -195.485347 -225.602116 C -166.155487 -238.12583 -127.470342 -232.005954 -99.206767 -217.232517 C -61.647984 -197.600454 -58.674392 -110.603953 -17.042236 -118.531353 C 45.740256 -130.486101 -20.418075 -302.375325 43.492352 -302.49596 C 85.172198 -302.574633 76.980748 -223.850429 83.423246 -182.671431 C 87.888595 -154.129927 58.708671 -111.615793 82.43538 -95.135501 C 130.046834 -62.065149 213.401564 -206.015631 246.345966 -158.31694 C 275.69034 -115.830562 170.588103 -84.714239 142.021272 -41.701209 C 133.595677 -29.014804 122.195142 -15.229322 122.252309 -0.000001 C 122.309862 15.332407 134.445543 28.767704 142.469707 41.83288 Z " fill="#a8e3d6" stroke="undefined" stroke-width="1" stroke-opacity="1" fill-opacity="1" visibility="visible" stroke-linecap="butt" stroke-linejoin="miter" stroke-miterlimit="4"></path></g></svg>